# xmcd
#
# Track frame offsets:
# 150
# 22247
# 40147
# 75387
# 101200
# 126135
# 148890
# 164652
# 188682
# 207565
# 233327
# 258880
# 277900
# 317165
#
# Disc length: 4529 seconds
#
#
# Revision: 0
# Processed by: cddbd v1.5.2PL0 Copyright (c) Steve Scherf et al.
# Submitted via: FreeRIP 2.96 
#
DISCID=c411af0e
DTITLE=BONNIE TYLER - FREE SPIRIT
DYEAR=1995
DGENRE=Pop
TTITLE0=NOTHING TO DO WITH LOVE
TTITLE1=YOU'RE THE ONE
TTITLE2=MAKING LOVE (OUTOF NOTHING AT ALL)
TTITLE3=GIVEN IT ALL
TTITLE4=WHAT YOU GOT
TTITLE5=BRIDGE OVER TROUBLE WATER
TTITLE6=TIME MENDS A BROKEN HEART
TTITLE7=DRIVING ME WILD
TTITLE8=SEXUAL DEVICE
TTITLE9=MAKE IT RIGHT TONIGHT
TTITLE10=ALL NIGHT TO NOW YOU
TTITLE11=FORGET HER
TTITLE12=TWO OUT OF THREE AIN'T BAD
TTITLE13=SEXUAL DEVICES (THE VARI MIX)
EXTD=BEST
EXTT0=
EXTT1=
EXTT2=
EXTT3=
EXTT4=
EXTT5=
EXTT6=
EXTT7=
EXTT8=
EXTT9=
EXTT10=
EXTT11=
EXTT12=
EXTT13=
PLAYORDER=
